<?xml version="1.0" encoding="UTF-8" standalone="no"?><svg xmlns="http://www.w3.org/2000/svg" xmlns:xlink="http://www.w3.org/1999/xlink" contentScriptType="application/ecmascript" contentStyleType="text/css" height="652px" preserveAspectRatio="none" style="width:964px;height:652px;" version="1.1" viewBox="0 0 964 652" width="964px" zoomAndPan="magnify"><defs><filter height="300%" id="f1weser4h4wmwr" width="300%" x="-1" y="-1"><feGaussianBlur result="blurOut" stdDeviation="2.0"/><feColorMatrix in="blurOut" result="blurOut2" type="matrix" values="0 0 0 0 0 0 0 0 0 0 0 0 0 0 0 0 0 0 .4 0"/><feOffset dx="4.0" dy="4.0" in="blurOut2" result="blurOut3"/><feBlend in="SourceGraphic" in2="blurOut3" mode="normal"/></filter></defs><g><!--class City--><rect fill="#FEFECE" filter="url(#f1weser4h4wmwr)" height="89.5078" id="City" style="stroke: #A80036; stroke-width: 1.5;" width="171" x="395" y="8"/><ellipse cx="466.25" cy="24" fill="#ADD1B2" rx="11" ry="11" style="stroke: #A80036; stroke-width: 1.0;"/><path d="M468.25,20.5 Q468.4531,20 468.6875,19.75 Q468.9219,19.5 469.1875,19.5 Q469.6563,19.5 469.9531,19.7813 Q470.25,20.0625 470.25,20.7188 L470.25,22.2813 Q470.25,22.9375 469.9688,23.2188 Q469.6875,23.5 469.25,23.5 Q468.8594,23.5 468.6094,23.3281 Q468.3594,23.1563 468.25,22.7031 Q468.2031,22.3906 468.0313,22.2188 Q467.7188,21.8906 467.1563,21.6953 Q466.5938,21.5 466.0313,21.5 Q465.3281,21.5 464.7422,21.7813 Q464.1563,22.0625 463.7031,22.6875 Q463.25,23.3125 463.25,24.1719 L463.25,25.0938 Q463.25,26.125 464.0938,26.8125 Q464.9375,27.5 466.4375,27.5 Q467.3281,27.5 467.9531,27.2969 Q468.3125,27.1875 468.7188,26.8281 Q468.9844,26.625 469.125,26.5625 Q469.2656,26.5 469.4375,26.5 Q469.7656,26.5 470.0078,26.7578 Q470.25,27.0156 470.25,27.375 Q470.25,27.7188 469.9063,28.125 Q469.4063,28.7188 468.6094,29.0469 Q467.5625,29.5 466.2813,29.5 Q464.7813,29.5 463.5781,28.9063 Q462.6094,28.4375 461.9297,27.4219 Q461.25,26.4063 461.25,25.2031 L461.25,24.1094 Q461.25,22.8594 461.8516,21.7656 Q462.4531,20.6719 463.5078,20.0859 Q464.5625,19.5 465.75,19.5 Q466.4688,19.5 467.0938,19.75 Q467.7188,20 468.25,20.5 Z "/><text fill="#000000" font-family="sans-serif" font-size="12" lengthAdjust="spacingAndGlyphs" textLength="20" x="486.75" y="28.9102">City</text><line style="stroke: #A80036; stroke-width: 1.5;" x1="396" x2="565" y1="40" y2="40"/><line style="stroke: #A80036; stroke-width: 1.5;" x1="396" x2="565" y1="48" y2="48"/><ellipse cx="406" cy="60.418" fill="#84BE84" rx="3" ry="3" style="stroke: #038048; stroke-width: 1.0;"/><text fill="#000000" font-family="sans-serif" font-size="11" lengthAdjust="spacingAndGlyphs" textLength="143" x="415" y="63.4189">is_valid(source : string) : bool</text><ellipse cx="406" cy="74.2539" fill="#84BE84" rx="3" ry="3" style="stroke: #038048; stroke-width: 1.0;"/><text fill="#000000" font-family="sans-serif" font-size="11" lengthAdjust="spacingAndGlyphs" textLength="87" x="415" y="77.2549">unzip(tmp : string)</text><ellipse cx="406" cy="88.0898" fill="#84BE84" rx="3" ry="3" style="stroke: #038048; stroke-width: 1.0;"/><text fill="#000000" font-family="sans-serif" font-size="11" lengthAdjust="spacingAndGlyphs" textLength="145" x="415" y="91.0908">is_vec(filename : string) : bool</text><!--class AdapterInterface--><rect fill="#FEFECE" filter="url(#f1weser4h4wmwr)" height="89.5078" id="AdapterInterface" style="stroke: #A80036; stroke-width: 1.5;" width="123" x="601" y="8"/><ellipse cx="616" cy="24" fill="#B4A7E5" rx="11" ry="11" style="stroke: #A80036; stroke-width: 1.0;"/><path d="M617,21 L617,27 L619,27 L619.4844,27 L620,27.625 L620,28 L620,28.375 L619.4844,29 L619,29 L613,29 L612.5156,29 L612,28.375 L612,28 L612,27.625 L612.5156,27 L613,27 L615,27 L615,21 L613,21 L612.5156,21 L612,20.375 L612,20 L612,19.625 L612.5156,19 L613,19 L619,19 L619.4844,19 L620,19.625 L620,20 L620,20.375 L619.4844,21 L619,21 L617,21 Z "/><text fill="#000000" font-family="sans-serif" font-size="12" font-style="italic" lengthAdjust="spacingAndGlyphs" textLength="91" x="630" y="28.9102">AdapterInterface</text><line style="stroke: #A80036; stroke-width: 1.5;" x1="602" x2="723" y1="40" y2="40"/><line style="stroke: #A80036; stroke-width: 1.5;" x1="602" x2="723" y1="48" y2="48"/><ellipse cx="612" cy="60.418" fill="#84BE84" rx="3" ry="3" style="stroke: #038048; stroke-width: 1.0;"/><text fill="#000000" font-family="sans-serif" font-size="11" font-style="italic" lengthAdjust="spacingAndGlyphs" textLength="26" x="621" y="63.4189">line()</text><ellipse cx="612" cy="74.2539" fill="#84BE84" rx="3" ry="3" style="stroke: #038048; stroke-width: 1.0;"/><text fill="#000000" font-family="sans-serif" font-size="11" font-style="italic" lengthAdjust="spacingAndGlyphs" textLength="46" x="621" y="77.2549">polygon()</text><ellipse cx="612" cy="88.0898" fill="#84BE84" rx="3" ry="3" style="stroke: #038048; stroke-width: 1.0;"/><text fill="#000000" font-family="sans-serif" font-size="11" font-style="italic" lengthAdjust="spacingAndGlyphs" textLength="41" x="621" y="91.0908">ellipse()</text><!--class Converter--><rect fill="#FEFECE" filter="url(#f1weser4h4wmwr)" height="61.8359" id="Converter" style="stroke: #A80036; stroke-width: 1.5;" width="323" x="196" y="172"/><ellipse cx="326.75" cy="188" fill="#ADD1B2" rx="11" ry="11" style="stroke: #A80036; stroke-width: 1.0;"/><path d="M328.75,184.5 Q328.9531,184 329.1875,183.75 Q329.4219,183.5 329.6875,183.5 Q330.1563,183.5 330.4531,183.7813 Q330.75,184.0625 330.75,184.7188 L330.75,186.2813 Q330.75,186.9375 330.4688,187.2188 Q330.1875,187.5 329.75,187.5 Q329.3594,187.5 329.1094,187.3281 Q328.8594,187.1563 328.75,186.7031 Q328.7031,186.3906 328.5313,186.2188 Q328.2188,185.8906 327.6563,185.6953 Q327.0938,185.5 326.5313,185.5 Q325.8281,185.5 325.2422,185.7813 Q324.6563,186.0625 324.2031,186.6875 Q323.75,187.3125 323.75,188.1719 L323.75,189.0938 Q323.75,190.125 324.5938,190.8125 Q325.4375,191.5 326.9375,191.5 Q327.8281,191.5 328.4531,191.2969 Q328.8125,191.1875 329.2188,190.8281 Q329.4844,190.625 329.625,190.5625 Q329.7656,190.5 329.9375,190.5 Q330.2656,190.5 330.5078,190.7578 Q330.75,191.0156 330.75,191.375 Q330.75,191.7188 330.4063,192.125 Q329.9063,192.7188 329.1094,193.0469 Q328.0625,193.5 326.7813,193.5 Q325.2813,193.5 324.0781,192.9063 Q323.1094,192.4375 322.4297,191.4219 Q321.75,190.4063 321.75,189.2031 L321.75,188.1094 Q321.75,186.8594 322.3516,185.7656 Q322.9531,184.6719 324.0078,184.0859 Q325.0625,183.5 326.25,183.5 Q326.9688,183.5 327.5938,183.75 Q328.2188,184 328.75,184.5 Z "/><text fill="#000000" font-family="sans-serif" font-size="12" lengthAdjust="spacingAndGlyphs" textLength="53" x="347.25" y="192.9102">Converter</text><line style="stroke: #A80036; stroke-width: 1.5;" x1="197" x2="518" y1="204" y2="204"/><line style="stroke: #A80036; stroke-width: 1.5;" x1="197" x2="518" y1="212" y2="212"/><ellipse cx="207" cy="224.418" fill="#84BE84" rx="3" ry="3" style="stroke: #038048; stroke-width: 1.0;"/><text fill="#000000" font-family="sans-serif" font-size="11" lengthAdjust="spacingAndGlyphs" textLength="297" x="216" y="227.4189">convert(input : InterpreterInterface, output : AdapterInterface)</text><!--class InterpreterInterface--><rect fill="#FEFECE" filter="url(#f1weser4h4wmwr)" height="61.8359" id="InterpreterInterface" style="stroke: #A80036; stroke-width: 1.5;" width="162" x="229.5" y="308"/><ellipse cx="255.75" cy="324" fill="#B4A7E5" rx="11" ry="11" style="stroke: #A80036; stroke-width: 1.0;"/><path d="M256.75,321 L256.75,327 L258.75,327 L259.2344,327 L259.75,327.625 L259.75,328 L259.75,328.375 L259.2344,329 L258.75,329 L252.75,329 L252.2656,329 L251.75,328.375 L251.75,328 L251.75,327.625 L252.2656,327 L252.75,327 L254.75,327 L254.75,321 L252.75,321 L252.2656,321 L251.75,320.375 L251.75,320 L251.75,319.625 L252.2656,319 L252.75,319 L258.75,319 L259.2344,319 L259.75,319.625 L259.75,320 L259.75,320.375 L259.2344,321 L258.75,321 L256.75,321 Z "/><text fill="#000000" font-family="sans-serif" font-size="12" font-style="italic" lengthAdjust="spacingAndGlyphs" textLength="105" x="272.25" y="328.9102">InterpreterInterface</text><line style="stroke: #A80036; stroke-width: 1.5;" x1="230.5" x2="390.5" y1="340" y2="340"/><line style="stroke: #A80036; stroke-width: 1.5;" x1="230.5" x2="390.5" y1="348" y2="348"/><ellipse cx="240.5" cy="360.418" fill="#84BE84" rx="3" ry="3" style="stroke: #038048; stroke-width: 1.0;"/><text fill="#000000" font-family="sans-serif" font-size="11" font-style="italic" lengthAdjust="spacingAndGlyphs" textLength="136" x="249.5" y="363.4189">interpret() : IteratorInterface</text><!--class VecInterpreter--><rect fill="#FEFECE" filter="url(#f1weser4h4wmwr)" height="103.3438" id="VecInterpreter" style="stroke: #A80036; stroke-width: 1.5;" width="325" x="6" y="430"/><ellipse cx="126.25" cy="446" fill="#ADD1B2" rx="11" ry="11" style="stroke: #A80036; stroke-width: 1.0;"/><path d="M128.25,442.5 Q128.4531,442 128.6875,441.75 Q128.9219,441.5 129.1875,441.5 Q129.6563,441.5 129.9531,441.7813 Q130.25,442.0625 130.25,442.7188 L130.25,444.2813 Q130.25,444.9375 129.9688,445.2188 Q129.6875,445.5 129.25,445.5 Q128.8594,445.5 128.6094,445.3281 Q128.3594,445.1563 128.25,444.7031 Q128.2031,444.3906 128.0313,444.2188 Q127.7188,443.8906 127.1563,443.6953 Q126.5938,443.5 126.0313,443.5 Q125.3281,443.5 124.7422,443.7813 Q124.1563,444.0625 123.7031,444.6875 Q123.25,445.3125 123.25,446.1719 L123.25,447.0938 Q123.25,448.125 124.0938,448.8125 Q124.9375,449.5 126.4375,449.5 Q127.3281,449.5 127.9531,449.2969 Q128.3125,449.1875 128.7188,448.8281 Q128.9844,448.625 129.125,448.5625 Q129.2656,448.5 129.4375,448.5 Q129.7656,448.5 130.0078,448.7578 Q130.25,449.0156 130.25,449.375 Q130.25,449.7188 129.9063,450.125 Q129.4063,450.7188 128.6094,451.0469 Q127.5625,451.5 126.2813,451.5 Q124.7813,451.5 123.5781,450.9063 Q122.6094,450.4375 121.9297,449.4219 Q121.25,448.4063 121.25,447.2031 L121.25,446.1094 Q121.25,444.8594 121.8516,443.7656 Q122.4531,442.6719 123.5078,442.0859 Q124.5625,441.5 125.75,441.5 Q126.4688,441.5 127.0938,441.75 Q127.7188,442 128.25,442.5 Z "/><text fill="#000000" font-family="sans-serif" font-size="12" lengthAdjust="spacingAndGlyphs" textLength="76" x="146.75" y="450.9102">VecInterpreter</text><line style="stroke: #A80036; stroke-width: 1.5;" x1="7" x2="330" y1="462" y2="462"/><line style="stroke: #A80036; stroke-width: 1.5;" x1="7" x2="330" y1="470" y2="470"/><ellipse cx="17" cy="482.418" fill="#84BE84" rx="3" ry="3" style="stroke: #038048; stroke-width: 1.0;"/><text fill="#000000" font-family="sans-serif" font-size="11" lengthAdjust="spacingAndGlyphs" textLength="121" x="26" y="485.4189">__init__(filename : string)</text><ellipse cx="17" cy="496.2539" fill="#84BE84" rx="3" ry="3" style="stroke: #038048; stroke-width: 1.0;"/><text fill="#000000" font-family="sans-serif" font-size="11" lengthAdjust="spacingAndGlyphs" textLength="60" x="26" y="499.2549">line() : string</text><ellipse cx="17" cy="510.0898" fill="#84BE84" rx="3" ry="3" style="stroke: #038048; stroke-width: 1.0;"/><text fill="#000000" font-family="sans-serif" font-size="11" lengthAdjust="spacingAndGlyphs" textLength="299" x="26" y="513.0908">command(name : string, params : string[]) : CommandInterface</text><ellipse cx="17" cy="523.9258" fill="#84BE84" rx="3" ry="3" style="stroke: #038048; stroke-width: 1.0;"/><text fill="#000000" font-family="sans-serif" font-size="11" lengthAdjust="spacingAndGlyphs" textLength="46" x="26" y="526.9268">__del__()</text><!--class VecIterator--><rect fill="#FEFECE" filter="url(#f1weser4h4wmwr)" height="48" id="VecIterator" style="stroke: #A80036; stroke-width: 1.5;" width="90" x="261.5" y="593"/><ellipse cx="276.5" cy="609" fill="#ADD1B2" rx="11" ry="11" style="stroke: #A80036; stroke-width: 1.0;"/><path d="M278.5,605.5 Q278.7031,605 278.9375,604.75 Q279.1719,604.5 279.4375,604.5 Q279.9063,604.5 280.2031,604.7813 Q280.5,605.0625 280.5,605.7188 L280.5,607.2813 Q280.5,607.9375 280.2188,608.2188 Q279.9375,608.5 279.5,608.5 Q279.1094,608.5 278.8594,608.3281 Q278.6094,608.1563 278.5,607.7031 Q278.4531,607.3906 278.2813,607.2188 Q277.9688,606.8906 277.4063,606.6953 Q276.8438,606.5 276.2813,606.5 Q275.5781,606.5 274.9922,606.7813 Q274.4063,607.0625 273.9531,607.6875 Q273.5,608.3125 273.5,609.1719 L273.5,610.0938 Q273.5,611.125 274.3438,611.8125 Q275.1875,612.5 276.6875,612.5 Q277.5781,612.5 278.2031,612.2969 Q278.5625,612.1875 278.9688,611.8281 Q279.2344,611.625 279.375,611.5625 Q279.5156,611.5 279.6875,611.5 Q280.0156,611.5 280.2578,611.7578 Q280.5,612.0156 280.5,612.375 Q280.5,612.7188 280.1563,613.125 Q279.6563,613.7188 278.8594,614.0469 Q277.8125,614.5 276.5313,614.5 Q275.0313,614.5 273.8281,613.9063 Q272.8594,613.4375 272.1797,612.4219 Q271.5,611.4063 271.5,610.2031 L271.5,609.1094 Q271.5,607.8594 272.1016,606.7656 Q272.7031,605.6719 273.7578,605.0859 Q274.8125,604.5 276,604.5 Q276.7188,604.5 277.3438,604.75 Q277.9688,605 278.5,605.5 Z "/><text fill="#000000" font-family="sans-serif" font-size="12" lengthAdjust="spacingAndGlyphs" textLength="58" x="290.5" y="613.9102">VecIterator</text><line style="stroke: #A80036; stroke-width: 1.5;" x1="262.5" x2="350.5" y1="625" y2="625"/><line style="stroke: #A80036; stroke-width: 1.5;" x1="262.5" x2="350.5" y1="633" y2="633"/><!--class IteratorInterface--><rect fill="#FEFECE" filter="url(#f1weser4h4wmwr)" height="61.8359" id="IteratorInterface" style="stroke: #A80036; stroke-width: 1.5;" width="157" x="366" y="450.5"/><ellipse cx="398.1" cy="466.5" fill="#B4A7E5" rx="11" ry="11" style="stroke: #A80036; stroke-width: 1.0;"/><path d="M399.1,463.5 L399.1,469.5 L401.1,469.5 L401.5844,469.5 L402.1,470.125 L402.1,470.5 L402.1,470.875 L401.5844,471.5 L401.1,471.5 L395.1,471.5 L394.6156,471.5 L394.1,470.875 L394.1,470.5 L394.1,470.125 L394.6156,469.5 L395.1,469.5 L397.1,469.5 L397.1,463.5 L395.1,463.5 L394.6156,463.5 L394.1,462.875 L394.1,462.5 L394.1,462.125 L394.6156,461.5 L395.1,461.5 L401.1,461.5 L401.5844,461.5 L402.1,462.125 L402.1,462.5 L402.1,462.875 L401.5844,463.5 L401.1,463.5 L399.1,463.5 Z "/><text fill="#000000" font-family="sans-serif" font-size="12" font-style="italic" lengthAdjust="spacingAndGlyphs" textLength="87" x="415.9" y="471.4102">IteratorInterface</text><line style="stroke: #A80036; stroke-width: 1.5;" x1="367" x2="522" y1="482.5" y2="482.5"/><line style="stroke: #A80036; stroke-width: 1.5;" x1="367" x2="522" y1="490.5" y2="490.5"/><ellipse cx="377" cy="502.918" fill="#84BE84" rx="3" ry="3" style="stroke: #038048; stroke-width: 1.0;"/><text fill="#000000" font-family="sans-serif" font-size="11" font-style="italic" lengthAdjust="spacingAndGlyphs" textLength="131" x="386" y="505.9189">next() : CommandInterface</text><!--class CommandInterface--><rect fill="#FEFECE" filter="url(#f1weser4h4wmwr)" height="89.5078" id="CommandInterface" style="stroke: #A80036; stroke-width: 1.5;" width="216" x="554.5" y="158"/><ellipse cx="604.75" cy="174" fill="#B4A7E5" rx="11" ry="11" style="stroke: #A80036; stroke-width: 1.0;"/><path d="M605.75,171 L605.75,177 L607.75,177 L608.2344,177 L608.75,177.625 L608.75,178 L608.75,178.375 L608.2344,179 L607.75,179 L601.75,179 L601.2656,179 L600.75,178.375 L600.75,178 L600.75,177.625 L601.2656,177 L601.75,177 L603.75,177 L603.75,171 L601.75,171 L601.2656,171 L600.75,170.375 L600.75,170 L600.75,169.625 L601.2656,169 L601.75,169 L607.75,169 L608.2344,169 L608.75,169.625 L608.75,170 L608.75,170.375 L608.2344,171 L607.75,171 L605.75,171 Z "/><text fill="#000000" font-family="sans-serif" font-size="12" font-style="italic" lengthAdjust="spacingAndGlyphs" textLength="107" x="625.25" y="178.9102">CommandInterface</text><line style="stroke: #A80036; stroke-width: 1.5;" x1="555.5" x2="769.5" y1="190" y2="190"/><line style="stroke: #A80036; stroke-width: 1.5;" x1="555.5" x2="769.5" y1="198" y2="198"/><ellipse cx="565.5" cy="210.418" fill="#84BE84" rx="3" ry="3" style="stroke: #038048; stroke-width: 1.0;"/><text fill="#000000" font-family="sans-serif" font-size="11" font-style="italic" lengthAdjust="spacingAndGlyphs" textLength="47" x="574.5" y="213.4189">execute()</text><ellipse cx="565.5" cy="224.2539" fill="#84BE84" rx="3" ry="3" style="stroke: #038048; stroke-width: 1.0;"/><text fill="#000000" font-family="sans-serif" font-size="11" lengthAdjust="spacingAndGlyphs" textLength="123" x="574.5" y="227.2549">__init__(params : string[])</text><ellipse cx="565.5" cy="238.0898" fill="#84BE84" rx="3" ry="3" style="stroke: #038048; stroke-width: 1.0;"/><text fill="#000000" font-family="sans-serif" font-size="11" lengthAdjust="spacingAndGlyphs" textLength="190" x="574.5" y="241.0908">setAdapter(adapter : AdapterInterface)</text><!--class LineCommand--><rect fill="#FEFECE" filter="url(#f1weser4h4wmwr)" height="48" id="LineCommand" style="stroke: #A80036; stroke-width: 1.5;" width="115" x="551" y="315"/><ellipse cx="566" cy="331" fill="#ADD1B2" rx="11" ry="11" style="stroke: #A80036; stroke-width: 1.0;"/><path d="M568,327.5 Q568.2031,327 568.4375,326.75 Q568.6719,326.5 568.9375,326.5 Q569.4063,326.5 569.7031,326.7813 Q570,327.0625 570,327.7188 L570,329.2813 Q570,329.9375 569.7188,330.2188 Q569.4375,330.5 569,330.5 Q568.6094,330.5 568.3594,330.3281 Q568.1094,330.1563 568,329.7031 Q567.9531,329.3906 567.7813,329.2188 Q567.4688,328.8906 566.9063,328.6953 Q566.3438,328.5 565.7813,328.5 Q565.0781,328.5 564.4922,328.7813 Q563.9063,329.0625 563.4531,329.6875 Q563,330.3125 563,331.1719 L563,332.0938 Q563,333.125 563.8438,333.8125 Q564.6875,334.5 566.1875,334.5 Q567.0781,334.5 567.7031,334.2969 Q568.0625,334.1875 568.4688,333.8281 Q568.7344,333.625 568.875,333.5625 Q569.0156,333.5 569.1875,333.5 Q569.5156,333.5 569.7578,333.7578 Q570,334.0156 570,334.375 Q570,334.7188 569.6563,335.125 Q569.1563,335.7188 568.3594,336.0469 Q567.3125,336.5 566.0313,336.5 Q564.5313,336.5 563.3281,335.9063 Q562.3594,335.4375 561.6797,334.4219 Q561,333.4063 561,332.2031 L561,331.1094 Q561,329.8594 561.6016,328.7656 Q562.2031,327.6719 563.2578,327.0859 Q564.3125,326.5 565.5,326.5 Q566.2188,326.5 566.8438,326.75 Q567.4688,327 568,327.5 Z "/><text fill="#000000" font-family="sans-serif" font-size="12" lengthAdjust="spacingAndGlyphs" textLength="83" x="580" y="335.9102">LineCommand</text><line style="stroke: #A80036; stroke-width: 1.5;" x1="552" x2="665" y1="347" y2="347"/><line style="stroke: #A80036; stroke-width: 1.5;" x1="552" x2="665" y1="355" y2="355"/><!--class StairsCommand--><rect fill="#FEFECE" filter="url(#f1weser4h4wmwr)" height="48" id="StairsCommand" style="stroke: #A80036; stroke-width: 1.5;" width="123" x="701" y="315"/><ellipse cx="716" cy="331" fill="#ADD1B2" rx="11" ry="11" style="stroke: #A80036; stroke-width: 1.0;"/><path d="M718,327.5 Q718.2031,327 718.4375,326.75 Q718.6719,326.5 718.9375,326.5 Q719.4063,326.5 719.7031,326.7813 Q720,327.0625 720,327.7188 L720,329.2813 Q720,329.9375 719.7188,330.2188 Q719.4375,330.5 719,330.5 Q718.6094,330.5 718.3594,330.3281 Q718.1094,330.1563 718,329.7031 Q717.9531,329.3906 717.7813,329.2188 Q717.4688,328.8906 716.9063,328.6953 Q716.3438,328.5 715.7813,328.5 Q715.0781,328.5 714.4922,328.7813 Q713.9063,329.0625 713.4531,329.6875 Q713,330.3125 713,331.1719 L713,332.0938 Q713,333.125 713.8438,333.8125 Q714.6875,334.5 716.1875,334.5 Q717.0781,334.5 717.7031,334.2969 Q718.0625,334.1875 718.4688,333.8281 Q718.7344,333.625 718.875,333.5625 Q719.0156,333.5 719.1875,333.5 Q719.5156,333.5 719.7578,333.7578 Q720,334.0156 720,334.375 Q720,334.7188 719.6563,335.125 Q719.1563,335.7188 718.3594,336.0469 Q717.3125,336.5 716.0313,336.5 Q714.5313,336.5 713.3281,335.9063 Q712.3594,335.4375 711.6797,334.4219 Q711,333.4063 711,332.2031 L711,331.1094 Q711,329.8594 711.6016,328.7656 Q712.2031,327.6719 713.2578,327.0859 Q714.3125,326.5 715.5,326.5 Q716.2188,326.5 716.8438,326.75 Q717.4688,327 718,327.5 Z "/><text fill="#000000" font-family="sans-serif" font-size="12" lengthAdjust="spacingAndGlyphs" textLength="91" x="730" y="335.9102">StairsCommand</text><line style="stroke: #A80036; stroke-width: 1.5;" x1="702" x2="823" y1="347" y2="347"/><line style="stroke: #A80036; stroke-width: 1.5;" x1="702" x2="823" y1="355" y2="355"/><!--class SvgAdapter--><rect fill="#FEFECE" filter="url(#f1weser4h4wmwr)" height="75.6719" id="SvgAdapter" style="stroke: #A80036; stroke-width: 1.5;" width="147" x="806" y="165"/><ellipse cx="844.85" cy="181" fill="#ADD1B2" rx="11" ry="11" style="stroke: #A80036; stroke-width: 1.0;"/><path d="M846.85,177.5 Q847.0531,177 847.2875,176.75 Q847.5219,176.5 847.7875,176.5 Q848.2563,176.5 848.5531,176.7813 Q848.85,177.0625 848.85,177.7188 L848.85,179.2813 Q848.85,179.9375 848.5688,180.2188 Q848.2875,180.5 847.85,180.5 Q847.4594,180.5 847.2094,180.3281 Q846.9594,180.1563 846.85,179.7031 Q846.8031,179.3906 846.6313,179.2188 Q846.3188,178.8906 845.7563,178.6953 Q845.1938,178.5 844.6313,178.5 Q843.9281,178.5 843.3422,178.7813 Q842.7563,179.0625 842.3031,179.6875 Q841.85,180.3125 841.85,181.1719 L841.85,182.0938 Q841.85,183.125 842.6938,183.8125 Q843.5375,184.5 845.0375,184.5 Q845.9281,184.5 846.5531,184.2969 Q846.9125,184.1875 847.3188,183.8281 Q847.5844,183.625 847.725,183.5625 Q847.8656,183.5 848.0375,183.5 Q848.3656,183.5 848.6078,183.7578 Q848.85,184.0156 848.85,184.375 Q848.85,184.7188 848.5063,185.125 Q848.0063,185.7188 847.2094,186.0469 Q846.1625,186.5 844.8813,186.5 Q843.3813,186.5 842.1781,185.9063 Q841.2094,185.4375 840.5297,184.4219 Q839.85,183.4063 839.85,182.2031 L839.85,181.1094 Q839.85,179.8594 840.4516,178.7656 Q841.0531,177.6719 842.1078,177.0859 Q843.1625,176.5 844.35,176.5 Q845.0688,176.5 845.6938,176.75 Q846.3188,177 846.85,177.5 Z "/><text fill="#000000" font-family="sans-serif" font-size="12" lengthAdjust="spacingAndGlyphs" textLength="62" x="864.15" y="185.9102">SvgAdapter</text><line style="stroke: #A80036; stroke-width: 1.5;" x1="807" x2="952" y1="197" y2="197"/><line style="stroke: #A80036; stroke-width: 1.5;" x1="807" x2="952" y1="205" y2="205"/><ellipse cx="817" cy="217.418" fill="#84BE84" rx="3" ry="3" style="stroke: #038048; stroke-width: 1.0;"/><text fill="#000000" font-family="sans-serif" font-size="11" lengthAdjust="spacingAndGlyphs" textLength="121" x="826" y="220.4189">__init__(filename : string)</text><ellipse cx="817" cy="231.2539" fill="#84BE84" rx="3" ry="3" style="stroke: #038048; stroke-width: 1.0;"/><text fill="#000000" font-family="sans-serif" font-size="11" lengthAdjust="spacingAndGlyphs" textLength="46" x="826" y="234.2549">__del__()</text><!--link AdapterInterface to Converter--><path d="M596.05,91.487 C591.821,93.725 587.612,95.913 583.5,98 C531.507,124.393 471.502,151.871 426.394,171.95 " fill="none" id="AdapterInterface-Converter" style="stroke: #A80036; stroke-width: 1.0; stroke-dasharray: 7.0,7.0;"/><polygon fill="#A80036" points="600.642,89.042,590.8178,89.738,596.2279,91.3905,594.5753,96.8006,600.642,89.042" style="stroke: #A80036; stroke-width: 1.0;"/><!--link Converter to InterpreterInterface--><path d="M346.952,234.072 C339.806,254.446 330.337,281.444 322.84,302.817 " fill="none" id="Converter-InterpreterInterface" style="stroke: #A80036; stroke-width: 1.0; stroke-dasharray: 7.0,7.0;"/><polygon fill="#A80036" points="321.175,307.565,327.93,300.3977,322.831,302.8472,320.3815,297.7482,321.175,307.565" style="stroke: #A80036; stroke-width: 1.0;"/><!--link InterpreterInterface to VecInterpreter--><path d="M265.552,384.473 C250.937,398.933 234.613,415.086 219.583,429.956 " fill="none" id="InterpreterInterface-VecInterpreter" style="stroke: #A80036; stroke-width: 1.0;"/><polygon fill="none" points="260.897,379.232,280.037,370.141,270.744,389.184,260.897,379.232" style="stroke: #A80036; stroke-width: 1.0;"/><!--link VecInterpreter to VecIterator--><path d="M221.066,533.351 C238.436,550.1552 257.281,568.3863 272.842,583.4396 " fill="none" id="VecInterpreter-VecIterator" style="stroke: #A80036; stroke-width: 1.0;"/><polygon fill="#A80036" points="282.545,592.8259,281.0137,585.7793,273.9202,584.4825,275.4515,591.5291,282.545,592.8259" style="stroke: #A80036; stroke-width: 1.0;"/><!--link Converter to IteratorInterface--><path d="M374.756,234.081 C385.778,254.399 399.616,282.134 408.5,308 C424.365,354.193 434.443,409.859 439.782,445.217 " fill="none" id="Converter-IteratorInterface" style="stroke: #A80036; stroke-width: 1.0; stroke-dasharray: 7.0,7.0;"/><polygon fill="#A80036" points="440.536,450.283,443.1682,440.7924,439.8003,445.3374,435.2553,441.9695,440.536,450.283" style="stroke: #A80036; stroke-width: 1.0;"/><!--link InterpreterInterface to IteratorInterface--><path d="M339.246,370.141 C360.707,392.643 390.043,423.401 412.293,446.731 " fill="none" id="InterpreterInterface-IteratorInterface" style="stroke: #A80036; stroke-width: 1.0; stroke-dasharray: 7.0,7.0;"/><polygon fill="#A80036" points="415.801,450.409,412.4837,441.1356,412.35,446.7909,406.6947,446.6572,415.801,450.409" style="stroke: #A80036; stroke-width: 1.0;"/><!--link IteratorInterface to VecIterator--><path d="M398.505,526.995 C375.696,549.0608 349.099,574.7901 330.385,592.8937 " fill="none" id="IteratorInterface-VecIterator" style="stroke: #A80036; stroke-width: 1.0; stroke-dasharray: 7.0,7.0;"/><polygon fill="none" points="393.944,521.668,413.186,512.793,403.678,531.73,393.944,521.668" style="stroke: #A80036; stroke-width: 1.0;"/><!--link AdapterInterface to CommandInterface--><path d="M662.5,103.402 C662.5,121.03 662.5,140.758 662.5,157.91 " fill="none" id="AdapterInterface-CommandInterface" style="stroke: #A80036; stroke-width: 1.0; stroke-dasharray: 7.0,7.0;"/><polygon fill="#A80036" points="662.5,98.004,658.5,107.004,662.5,103.004,666.5,107.004,662.5,98.004" style="stroke: #A80036; stroke-width: 1.0;"/><!--link CommandInterface to LineCommand--><path d="M637.173,266.849 C630.264,283.992 623.209,301.499 617.826,314.857 " fill="none" id="CommandInterface-LineCommand" style="stroke: #A80036; stroke-width: 1.0; stroke-dasharray: 7.0,7.0;"/><polygon fill="none" points="630.701,264.182,644.669,248.248,643.686,269.415,630.701,264.182" style="stroke: #A80036; stroke-width: 1.0;"/><!--link CommandInterface to StairsCommand--><path d="M707.558,264.377 C720.931,282.298 734.781,300.856 745.229,314.857 " fill="none" id="CommandInterface-StairsCommand" style="stroke: #A80036; stroke-width: 1.0; stroke-dasharray: 7.0,7.0;"/><polygon fill="none" points="701.873,268.463,695.521,248.248,713.093,260.09,701.873,268.463" style="stroke: #A80036; stroke-width: 1.0;"/><!--link AdapterInterface to SvgAdapter--><path d="M740.637,107.291 C768.642,126.392 799.582,147.494 825.136,164.922 " fill="none" id="AdapterInterface-SvgAdapter" style="stroke: #A80036; stroke-width: 1.0; stroke-dasharray: 7.0,7.0;"/><polygon fill="none" points="736.682,113.067,724.103,96.015,744.57,101.501,736.682,113.067" style="stroke: #A80036; stroke-width: 1.0;"/><!--
@startuml

class City {
    + is_valid(source : string) : bool
    + unzip(tmp : string)
    + is_vec(filename : string) : bool
}

interface AdapterInterface {
    + {abstract} line()
    + {abstract} polygon()
    + {abstract} ellipse()
}

class Converter {
    + convert(input : InterpreterInterface, output : AdapterInterface)
}
AdapterInterface <.. Converter

interface InterpreterInterface {
    + {abstract} interpret() : IteratorInterface
}
Converter ..>InterpreterInterface

class VecInterpreter {
    + __init__(filename : string)
    + line() : string
    + command(name : string, params : string[]) : CommandInterface
    + __del__()
}
InterpreterInterface <|- - VecInterpreter
VecInterpreter - -* VecIterator

interface IteratorInterface {
    + {abstract} next() : CommandInterface
}
Converter ..> IteratorInterface
InterpreterInterface ..> IteratorInterface

IteratorInterface <|.. VecIterator

interface CommandInterface {
    + {abstract} execute()
    + __init__(params : string[])
    + setAdapter(adapter : AdapterInterface)
}
AdapterInterface <.. CommandInterface
CommandInterface <|.. LineCommand
CommandInterface <|.. StairsCommand

class SvgAdapter {
    + __init__(filename : string)
    + __del__()
}
AdapterInterface <|.. SvgAdapter

@enduml

PlantUML version 1.2018.01(Sun Jan 28 20:08:22 EET 2018)
(GPL source distribution)
Java Runtime: OpenJDK Runtime Environment
JVM: OpenJDK 64-Bit Server VM
Java Version: 1.8.0_152-release-1136-b39
Operating System: Windows 7
OS Version: 6.1
Default Encoding: Cp1251
Language: ru
Country: RU
--></g></svg>